<svg width="294" height="49" viewBox="0 0 294 49" fill="none" xmlns="http://www.w3.org/2000/svg">
<g clip-path="url(#clip0_159_1938)">
<path d="M5.46358 27.9742C5.46893 27.9975 5.47527 28.0206 5.48259 28.0433C5.48805 28.0608 5.49407 28.078 5.50066 28.095C5.51312 28.1277 5.52762 28.1595 5.54408 28.1901C5.55541 28.2101 5.56758 28.2295 5.58054 28.2484C5.58289 28.2521 5.58527 28.2558 5.58769 28.2595C5.5963 28.2719 5.60526 28.2841 5.61454 28.2961C5.62094 28.3047 5.62751 28.3132 5.63425 28.3216C5.64161 28.3301 5.64915 28.3383 5.65685 28.3464C5.66615 28.3571 5.67572 28.3676 5.68556 28.3777C5.68747 28.3794 5.68938 28.3811 5.69131 28.3827C5.70801 28.399 5.72539 28.4144 5.74341 28.429C5.75951 28.4416 5.77607 28.4535 5.79307 28.4647C5.79735 28.4679 5.80167 28.4711 5.80602 28.4742C5.80722 28.475 5.80842 28.4758 5.80962 28.4765L5.88882 28.5272C5.94732 28.5786 6.01286 28.6206 6.08323 28.6516L16.1781 35.1107L26.5466 41.7448C26.5684 41.7585 26.5907 41.7711 26.6136 41.7825C26.6365 41.7944 26.66 41.8051 26.6839 41.8145C26.7079 41.8236 26.7322 41.8313 26.7568 41.8378C26.8063 41.8507 26.8569 41.8584 26.9079 41.8607C26.9334 41.862 26.959 41.862 26.9846 41.8606C27.0097 41.8593 27.0347 41.8567 27.0595 41.8528C27.0851 41.8489 27.1105 41.8435 27.1356 41.8368C27.1549 41.8317 27.174 41.8258 27.1929 41.8191C27.2004 41.8162 27.2079 41.8133 27.2154 41.8102C27.2366 41.8016 27.2574 41.792 27.2778 41.7815C27.2968 41.7717 27.3153 41.7611 27.3334 41.7497C27.3393 41.7462 27.3451 41.7426 27.3508 41.7389C27.3702 41.7259 27.389 41.712 27.4072 41.6973C27.4231 41.6849 27.4385 41.6719 27.4535 41.6583C27.4599 41.6525 27.4662 41.6466 27.4724 41.6406C27.4881 41.6241 27.5031 41.6069 27.5173 41.5891C27.5178 41.5889 27.5183 41.5888 27.5187 41.5887C27.529 41.5763 27.5388 41.5637 27.5483 41.5507C27.558 41.5379 27.5672 41.5248 27.5761 41.5115C27.5777 41.5095 27.5793 41.5075 27.5809 41.5055C27.5862 41.4968 27.5913 41.488 27.5963 41.4791C27.6047 41.4655 27.6128 41.4516 27.6204 41.4376L40.2207 19.8243C40.2946 19.7254 40.3452 19.6097 40.3685 19.4865C40.3918 19.3633 40.387 19.2361 40.3546 19.1151C40.3223 18.9942 40.2632 18.883 40.1821 18.7904C40.1011 18.6978 40.0004 18.6266 39.8882 18.5823L19.8262 6.70406C19.8256 6.70368 19.825 6.70329 19.8244 6.70291C19.7428 6.62633 19.6464 6.56905 19.5417 6.53497L19.5133 6.51806C19.3794 6.43882 19.2259 6.40374 19.0727 6.41741C18.8929 6.43323 18.7243 6.51521 18.5967 6.64883C18.5609 6.68669 18.5289 6.72819 18.501 6.77273C18.5001 6.77347 18.4993 6.77422 18.4985 6.77498L5.56916 27.3543C5.56806 27.3562 5.56696 27.3581 5.56586 27.36C5.56561 27.3611 5.56536 27.3622 5.56512 27.3634C5.53918 27.4053 5.51705 27.4496 5.49901 27.4959C5.49801 27.4982 5.49703 27.5006 5.49606 27.503C5.48755 27.5255 5.48002 27.5483 5.47348 27.5714C5.47297 27.5737 5.47247 27.576 5.47198 27.5782C5.46569 27.6018 5.46045 27.6257 5.45625 27.6497C5.45574 27.652 5.45524 27.6543 5.45475 27.6566C5.4511 27.6806 5.4485 27.7049 5.44697 27.7293C5.44525 27.7493 5.44426 27.7694 5.44399 27.7895C5.44386 27.7959 5.44381 27.8024 5.44384 27.8088C5.44393 27.8115 5.44403 27.8141 5.44414 27.8168C5.44423 27.8194 5.44433 27.8221 5.44444 27.8247C5.44531 27.8484 5.44719 27.8721 5.45006 27.8956C5.45332 27.9221 5.45783 27.9483 5.46358 27.9742ZM8.45663 27.6923L18.7552 22.1096L18.8772 31.0999L8.45663 27.6923ZM8.24792 26.0026L18.5858 9.54827L18.731 20.3218L8.24792 26.0026ZM11.8852 30.4893L19.2908 32.9129L23.2438 37.7569L16.9741 33.7453L11.8852 30.4893ZM20.3992 30.7531L20.2705 21.2887L27.2278 17.5181L26.8223 26.6226L20.3992 30.7531ZM20.839 32.3473L26.7372 28.5554L26.2709 39.0063L20.839 32.3473ZM20.2464 19.5009L20.1092 9.2944L26.7684 15.9658L20.2464 19.5009ZM27.8464 37.9805L28.3112 27.5429L37.3024 21.7607L27.8464 37.9805ZM24.0831 11.0629L34.165 17.0333L28.5073 15.495L24.0831 11.0629ZM28.3962 25.6101L28.77 17.2193L37.6801 19.6397L28.3962 25.6101Z" fill="#255ED6"/>
</g>
<path d="M55.917 36.3076C54.1787 36.3076 52.6357 36.1416 51.2881 35.8096C49.9404 35.4775 48.5977 34.8525 47.2598 33.9346V28.3975H51.2295L51.6689 31.2393C51.9814 31.5908 52.5332 31.8887 53.3242 32.1328C54.1152 32.3672 54.9795 32.4844 55.917 32.4844C56.5713 32.4844 57.1182 32.4062 57.5576 32.25C57.9971 32.084 58.3291 31.8447 58.5537 31.5322C58.7783 31.2197 58.8906 30.8438 58.8906 30.4043C58.8906 29.9844 58.7832 29.6084 58.5684 29.2764C58.3633 28.9443 58.0215 28.6318 57.543 28.3389C57.0645 28.0361 56.4199 27.7285 55.6094 27.416C53.7832 26.8301 52.2842 26.2344 51.1123 25.6289C49.9404 25.0234 49.0664 24.3057 48.4902 23.4756C47.9238 22.6455 47.6406 21.6152 47.6406 20.3848C47.6406 19.2031 47.9775 18.1729 48.6514 17.2939C49.3252 16.4053 50.2529 15.707 51.4346 15.1992C52.6162 14.6914 53.9688 14.4229 55.4922 14.3936C57.2305 14.3545 58.7686 14.5303 60.1064 14.9209C61.4443 15.3018 62.626 15.8828 63.6514 16.6641V21.8057H59.8428L59.2422 18.9492C58.9102 18.7832 58.4365 18.6318 57.8213 18.4951C57.2061 18.3584 56.5518 18.29 55.8584 18.29C55.2627 18.29 54.7305 18.3682 54.2617 18.5244C53.8027 18.6807 53.4365 18.915 53.1631 19.2275C52.8994 19.54 52.7676 19.9307 52.7676 20.3994C52.7676 20.7803 52.8799 21.1221 53.1045 21.4248C53.3291 21.7178 53.7246 22.0156 54.291 22.3184C54.8574 22.6113 55.6484 22.9531 56.6641 23.3438C59.0859 24.0566 60.9219 24.9502 62.1719 26.0244C63.4316 27.0889 64.0615 28.5391 64.0615 30.375C64.0615 31.6348 63.7197 32.709 63.0361 33.5977C62.3525 34.4766 61.4004 35.1504 60.1797 35.6191C58.959 36.0781 57.5381 36.3076 55.917 36.3076ZM66.3895 36V32.9971L68.2645 32.5283V23.6367L66.0379 23.168V20.1504H73.0838L73.2449 22.2598C73.7625 21.498 74.3924 20.9072 75.1346 20.4873C75.8768 20.0674 76.7361 19.8574 77.7127 19.8574C78.699 19.8574 79.5438 20.0723 80.2469 20.502C80.9598 20.9219 81.4969 21.5664 81.8582 22.4355C82.3367 21.6152 82.952 20.9805 83.7039 20.5312C84.4656 20.082 85.3592 19.8574 86.3846 19.8574C87.9178 19.8574 89.1238 20.375 90.0027 21.4102C90.8816 22.4453 91.3211 24.0371 91.3211 26.1855V32.5283L93.1961 32.9971V36H84.6854V32.9971L86.1941 32.5283V26.1855C86.1941 25.2578 86.0477 24.6279 85.7547 24.2959C85.4715 23.9639 85.0564 23.7979 84.5096 23.7979C84.0604 23.7979 83.6551 23.8857 83.2938 24.0615C82.9324 24.2275 82.615 24.4717 82.3416 24.7939V32.5283L83.66 32.9971V36H75.9109V32.9971L77.2293 32.5283V26.1855C77.2293 25.2578 77.0877 24.6279 76.8045 24.2959C76.5213 23.9639 76.0965 23.7979 75.5301 23.7979C75.0906 23.7979 74.6902 23.8857 74.3289 24.0615C73.9676 24.2275 73.6502 24.4766 73.3768 24.8086V32.5283L74.8855 32.9971V36H66.3895ZM100.812 36.3076C99.2789 36.3076 98.0289 35.873 97.0621 35.0039C96.0953 34.1348 95.6119 32.9775 95.6119 31.5322C95.6119 30.5459 95.8756 29.6719 96.4029 28.9102C96.94 28.1484 97.7408 27.5527 98.8053 27.123C99.8795 26.6836 101.222 26.4639 102.834 26.4639H104.489V25.5264C104.489 24.8916 104.308 24.3545 103.947 23.915C103.586 23.4658 103.014 23.2412 102.233 23.2412C101.901 23.2412 101.588 23.2852 101.296 23.373C101.012 23.4512 100.754 23.5684 100.519 23.7246L100.168 25.7461H96.5494L96.4762 21.3369C97.3746 20.9365 98.3121 20.5898 99.2887 20.2969C100.275 20.0039 101.374 19.8574 102.585 19.8574C104.743 19.8574 106.457 20.3555 107.726 21.3516C108.996 22.3379 109.63 23.749 109.63 25.585V31.4297C109.63 31.6543 109.63 31.874 109.63 32.0889C109.64 32.3037 109.665 32.5088 109.704 32.7041L111.418 32.9971V36H105.412C105.285 35.8242 105.148 35.5898 105.002 35.2969C104.855 35.0039 104.753 34.7109 104.694 34.418C104.215 35.0137 103.678 35.4775 103.083 35.8096C102.487 36.1416 101.73 36.3076 100.812 36.3076ZM102.394 32.6748C102.765 32.6748 103.136 32.6016 103.507 32.4551C103.888 32.2988 104.215 32.0693 104.489 31.7666V29.4814H102.892C102.199 29.4814 101.662 29.6328 101.281 29.9355C100.91 30.2383 100.724 30.6387 100.724 31.1367C100.724 31.6152 100.88 31.9912 101.193 32.2646C101.505 32.5381 101.906 32.6748 102.394 32.6748ZM114.244 36V32.9971L116.089 32.5283V23.6367L113.892 23.168V20.1504H120.938L121.055 22.084L121.084 22.4795C121.436 21.5811 121.871 20.9219 122.388 20.502C122.915 20.0723 123.57 19.8574 124.351 19.8574C124.566 19.8574 124.82 19.877 125.113 19.916C125.406 19.9453 125.704 20.0039 126.006 20.0918L125.494 24.8086L123.296 24.7061C122.788 24.6865 122.388 24.7451 122.095 24.8818C121.812 25.0088 121.524 25.2236 121.231 25.5264V32.5283L123.077 32.9971V36H114.244ZM135.058 36.3369C133.398 36.3369 132.133 35.8975 131.264 35.0186C130.404 34.1299 129.975 32.7285 129.975 30.8145V23.6953H127.997V20.1504H129.975V16.2393H135.087V20.1504H137.68V23.6953H135.087V30.7998C135.087 31.3174 135.204 31.6787 135.439 31.8838C135.673 32.0889 135.995 32.1914 136.405 32.1914C136.581 32.1914 136.757 32.1816 136.933 32.1621C137.109 32.1426 137.284 32.1182 137.46 32.0889L137.812 35.9268C137.363 36.0537 136.908 36.1514 136.449 36.2197C136 36.2979 135.536 36.3369 135.058 36.3369Z" fill="#255ED6"/>
<path d="M149.544 36.3076C147.806 36.3076 146.263 36.1416 144.915 35.8096C143.567 35.4775 142.225 34.8525 140.887 33.9346V28.3975H144.856L145.296 31.2393C145.608 31.5908 146.16 31.8887 146.951 32.1328C147.742 32.3672 148.606 32.4844 149.544 32.4844C150.198 32.4844 150.745 32.4062 151.185 32.25C151.624 32.084 151.956 31.8447 152.181 31.5322C152.405 31.2197 152.518 30.8438 152.518 30.4043C152.518 29.9844 152.41 29.6084 152.195 29.2764C151.99 28.9443 151.648 28.6318 151.17 28.3389C150.691 28.0361 150.047 27.7285 149.236 27.416C147.41 26.8301 145.911 26.2344 144.739 25.6289C143.567 25.0234 142.693 24.3057 142.117 23.4756C141.551 22.6455 141.268 21.6152 141.268 20.3848C141.268 19.2031 141.604 18.1729 142.278 17.2939C142.952 16.4053 143.88 15.707 145.062 15.1992C146.243 14.6914 147.596 14.4229 149.119 14.3936C150.857 14.3545 152.396 14.5303 153.733 14.9209C155.071 15.3018 156.253 15.8828 157.278 16.6641V21.8057H153.47L152.869 18.9492C152.537 18.7832 152.063 18.6318 151.448 18.4951C150.833 18.3584 150.179 18.29 149.485 18.29C148.89 18.29 148.357 18.3682 147.889 18.5244C147.43 18.6807 147.063 18.915 146.79 19.2275C146.526 19.54 146.395 19.9307 146.395 20.3994C146.395 20.7803 146.507 21.1221 146.731 21.4248C146.956 21.7178 147.352 22.0156 147.918 22.3184C148.484 22.6113 149.275 22.9531 150.291 23.3438C152.713 24.0566 154.549 24.9502 155.799 26.0244C157.059 27.0889 157.688 28.5391 157.688 30.375C157.688 31.6348 157.347 32.709 156.663 33.5977C155.979 34.4766 155.027 35.1504 153.807 35.6191C152.586 36.0781 151.165 36.3076 149.544 36.3076ZM167.912 36.3076C166.34 36.3076 164.987 35.9609 163.854 35.2676C162.721 34.5742 161.852 33.6221 161.247 32.4111C160.641 31.2002 160.339 29.8184 160.339 28.2656V27.9287C160.339 26.3369 160.651 24.9355 161.276 23.7246C161.911 22.5137 162.79 21.5664 163.913 20.8828C165.046 20.1992 166.364 19.8574 167.868 19.8574C169.382 19.8574 170.676 20.0869 171.75 20.5459C172.834 21.0049 173.688 21.4834 174.313 21.9814L174.225 26.9766H170.402L169.787 24.1055C169.621 23.9395 169.396 23.8027 169.113 23.6953C168.84 23.5879 168.61 23.5342 168.425 23.5342C167.692 23.5342 167.111 23.6953 166.681 24.0176C166.252 24.3301 165.944 24.8086 165.759 25.4531C165.573 26.0977 165.48 26.9229 165.48 27.9287V28.2656C165.48 29.3105 165.602 30.1357 165.846 30.7412C166.1 31.3369 166.418 31.7617 166.799 32.0156C167.179 32.2695 167.57 32.3965 167.971 32.3965C168.586 32.3965 169.059 32.2451 169.391 31.9424C169.733 31.6299 169.997 31.1758 170.182 30.5801H174.489L174.548 30.668C174.313 31.9277 173.947 32.9775 173.449 33.8174C172.951 34.6475 172.258 35.2725 171.369 35.6924C170.49 36.1025 169.338 36.3076 167.912 36.3076ZM177.33 36V32.9971L179.19 32.5283V16.6348L176.963 16.166V13.1484H184.302V22.1133C184.771 21.4004 185.357 20.8486 186.06 20.458C186.763 20.0576 187.579 19.8574 188.506 19.8574C190.03 19.8574 191.255 20.4043 192.183 21.498C193.111 22.582 193.575 24.2617 193.575 26.5371V32.5283L195.421 32.9971V36H186.924V32.9971L188.433 32.5283V26.5078C188.433 25.4727 188.257 24.7646 187.906 24.3838C187.564 23.9932 187.066 23.7979 186.412 23.7979C185.962 23.7979 185.557 23.876 185.196 24.0322C184.835 24.1885 184.537 24.4375 184.302 24.7793V32.5283L185.811 32.9971V36H177.33ZM205.336 36.3076C203.784 36.3076 202.426 35.9756 201.264 35.3115C200.112 34.6377 199.213 33.7197 198.569 32.5576C197.934 31.3955 197.617 30.082 197.617 28.6172V28.0752C197.617 26.4639 197.9 25.0381 198.466 23.7979C199.033 22.5576 199.863 21.5908 200.956 20.8975C202.05 20.1943 203.393 19.8477 204.985 19.8574C206.42 19.8574 207.631 20.1357 208.618 20.6924C209.614 21.2393 210.371 22.0498 210.888 23.124C211.406 24.1885 211.664 25.502 211.664 27.0645V29.7158H202.949L202.934 29.8184C203.012 30.3164 203.178 30.7607 203.432 31.1514C203.696 31.5322 204.057 31.835 204.516 32.0596C204.975 32.2842 205.541 32.3965 206.215 32.3965C206.879 32.3965 207.529 32.3232 208.163 32.1768C208.808 32.0205 209.487 31.7764 210.2 31.4443L211.371 34.5498C210.659 35.0576 209.789 35.4775 208.764 35.8096C207.739 36.1416 206.596 36.3076 205.336 36.3076ZM202.949 26.5371H206.977V26.1562C206.977 25.5898 206.918 25.1162 206.801 24.7354C206.694 24.3545 206.503 24.0664 206.23 23.8711C205.956 23.6758 205.58 23.5781 205.102 23.5781C204.584 23.5781 204.169 23.7051 203.857 23.959C203.554 24.2031 203.329 24.5449 203.183 24.9844C203.046 25.4141 202.949 25.9072 202.89 26.4639L202.949 26.5371ZM220.321 36.3076C219.08 36.3076 218.011 35.9805 217.113 35.3262C216.224 34.6719 215.54 33.7539 215.062 32.5723C214.593 31.3809 214.359 29.9941 214.359 28.4121V28.1045C214.359 26.4541 214.598 25.0137 215.076 23.7832C215.555 22.543 216.234 21.5811 217.113 20.8975C218.001 20.2041 219.051 19.8574 220.262 19.8574C221.102 19.8574 221.824 20.0332 222.43 20.3848C223.045 20.7266 223.582 21.21 224.041 21.835V16.6348L221.815 16.166V13.1484H224.041H229.183V32.5283L231.029 32.9971V36H224.73L224.349 34.0371C223.87 34.7793 223.304 35.3457 222.65 35.7363C221.995 36.1172 221.219 36.3076 220.321 36.3076ZM221.917 32.3672C222.347 32.3672 222.747 32.2842 223.118 32.1182C223.489 31.9521 223.797 31.7031 224.041 31.3711V25.0283C223.797 24.6279 223.494 24.3252 223.133 24.1201C222.781 23.9053 222.386 23.7979 221.946 23.7979C221.361 23.7979 220.887 23.9785 220.526 24.3398C220.164 24.7012 219.901 25.2041 219.735 25.8486C219.578 26.4932 219.5 27.2451 219.5 28.1045V28.4121C219.5 29.6719 219.676 30.6484 220.028 31.3418C220.379 32.0254 221.009 32.3672 221.917 32.3672ZM239.758 36.3076C238.117 36.3076 236.828 35.79 235.891 34.7549C234.953 33.7197 234.484 32.1182 234.484 29.9502V23.6367L232.785 23.168V20.1504H234.484H239.626V29.9795C239.626 30.7607 239.787 31.3564 240.109 31.7666C240.441 32.167 240.935 32.3672 241.589 32.3672C241.97 32.3672 242.346 32.2988 242.717 32.1621C243.098 32.0156 243.435 31.8008 243.728 31.5176V23.6367L241.999 23.168V20.1504H243.728H248.869V32.5283L250.847 32.9971V36H244.401L244.064 34.1982C243.557 34.8818 242.937 35.4043 242.204 35.7656C241.481 36.127 240.666 36.3076 239.758 36.3076ZM253.057 36V32.9971L254.932 32.5283V16.6348L252.706 16.166V13.1484H260.074V32.5283L261.934 32.9971V36H253.057ZM271.66 36.3076C270.107 36.3076 268.75 35.9756 267.587 35.3115C266.435 34.6377 265.537 33.7197 264.892 32.5576C264.257 31.3955 263.94 30.082 263.94 28.6172V28.0752C263.94 26.4639 264.223 25.0381 264.79 23.7979C265.356 22.5576 266.186 21.5908 267.28 20.8975C268.374 20.1943 269.716 19.8477 271.308 19.8574C272.744 19.8574 273.955 20.1357 274.941 20.6924C275.937 21.2393 276.694 22.0498 277.212 23.124C277.729 24.1885 277.988 25.502 277.988 27.0645V29.7158H269.272L269.257 29.8184C269.336 30.3164 269.502 30.7607 269.755 31.1514C270.019 31.5322 270.38 31.835 270.839 32.0596C271.298 32.2842 271.865 32.3965 272.539 32.3965C273.203 32.3965 273.852 32.3232 274.487 32.1768C275.131 32.0205 275.81 31.7764 276.523 31.4443L277.695 34.5498C276.982 35.0576 276.113 35.4775 275.087 35.8096C274.062 36.1416 272.92 36.3076 271.66 36.3076ZM269.272 26.5371H273.3V26.1562C273.3 25.5898 273.242 25.1162 273.125 24.7354C273.017 24.3545 272.827 24.0664 272.553 23.8711C272.28 23.6758 271.904 23.5781 271.425 23.5781C270.908 23.5781 270.493 23.7051 270.18 23.959C269.878 24.2031 269.653 24.5449 269.506 24.9844C269.37 25.4141 269.272 25.9072 269.213 26.4639L269.272 26.5371ZM281.546 36V32.9971L283.392 32.5283V23.6367L281.195 23.168V20.1504H288.241L288.358 22.084L288.387 22.4795C288.739 21.5811 289.173 20.9219 289.691 20.502C290.218 20.0723 290.872 19.8574 291.654 19.8574C291.869 19.8574 292.122 19.877 292.415 19.916C292.708 19.9453 293.006 20.0039 293.309 20.0918L292.796 24.8086L290.599 24.7061C290.091 24.6865 289.691 24.7451 289.398 24.8818C289.115 25.0088 288.827 25.2236 288.534 25.5264V32.5283L290.379 32.9971V36H281.546Z" fill="black"/>
<defs>
<clipPath id="clip0_159_1938">
<rect width="39.9018" height="38.2844" fill="white" transform="matrix(-0.224771 -0.974412 0.969416 -0.245423 8.96875 48.2767)"/>
</clipPath>
</defs>
</svg>
