<svg width="47" height="49" viewBox="0 0 47 49" fill="none" xmlns="http://www.w3.org/2000/svg">
<g clip-path="url(#clip0_32_1344)">
<path d="M5.46398 27.9742C5.46932 27.9975 5.47567 28.0206 5.48299 28.0433C5.48844 28.0608 5.49447 28.078 5.50105 28.095C5.51351 28.1277 5.52802 28.1595 5.54447 28.1901C5.55581 28.2101 5.56798 28.2295 5.58093 28.2484C5.58329 28.2521 5.58567 28.2558 5.58808 28.2595C5.5967 28.2719 5.60565 28.2841 5.61494 28.2961C5.62134 28.3047 5.62791 28.3132 5.63464 28.3216C5.64201 28.3301 5.64955 28.3383 5.65725 28.3464C5.66654 28.3571 5.67612 28.3676 5.68595 28.3777C5.68786 28.3794 5.68978 28.3811 5.6917 28.3827C5.7084 28.399 5.72579 28.4144 5.74381 28.429C5.75991 28.4416 5.77647 28.4535 5.79346 28.4647C5.79775 28.4679 5.80207 28.4711 5.80641 28.4742C5.80761 28.475 5.80881 28.4758 5.81001 28.4765L5.88922 28.5272C5.94772 28.5786 6.01325 28.6206 6.08363 28.6516L16.1785 35.1107L26.547 41.7448C26.5688 41.7585 26.5911 41.7711 26.614 41.7825C26.6369 41.7944 26.6604 41.8051 26.6843 41.8145C26.7083 41.8236 26.7326 41.8313 26.7572 41.8378C26.8067 41.8507 26.8573 41.8584 26.9083 41.8607C26.9338 41.862 26.9594 41.862 26.985 41.8606C27.01 41.8593 27.0351 41.8567 27.0599 41.8528C27.0855 41.8489 27.1109 41.8435 27.136 41.8368C27.1553 41.8317 27.1744 41.8258 27.1933 41.8191C27.2008 41.8162 27.2083 41.8133 27.2158 41.8102C27.237 41.8016 27.2578 41.792 27.2782 41.7815C27.2972 41.7717 27.3157 41.7611 27.3338 41.7497C27.3397 41.7462 27.3455 41.7426 27.3512 41.7389C27.3706 41.7259 27.3894 41.712 27.4076 41.6973C27.4235 41.6849 27.4389 41.6719 27.4539 41.6583C27.4603 41.6525 27.4666 41.6466 27.4728 41.6406C27.4885 41.6241 27.5034 41.6069 27.5177 41.5891C27.5182 41.5889 27.5187 41.5888 27.5191 41.5887C27.5294 41.5763 27.5392 41.5637 27.5487 41.5507C27.5584 41.5379 27.5676 41.5248 27.5765 41.5115C27.5781 41.5095 27.5797 41.5075 27.5813 41.5055C27.5866 41.4968 27.5917 41.488 27.5967 41.4791C27.6051 41.4655 27.6132 41.4516 27.6208 41.4376L40.2211 19.8243C40.295 19.7254 40.3456 19.6097 40.3689 19.4865C40.3922 19.3633 40.3874 19.2361 40.355 19.1151C40.3227 18.9942 40.2636 18.883 40.1825 18.7904C40.1015 18.6978 40.0008 18.6266 39.8886 18.5823L19.8266 6.70406C19.826 6.70368 19.8254 6.70329 19.8248 6.70291C19.7432 6.62633 19.6468 6.56905 19.5421 6.53497L19.5137 6.51806C19.3798 6.43882 19.2263 6.40374 19.0731 6.41741C18.8933 6.43323 18.7247 6.51521 18.5971 6.64883C18.5613 6.68669 18.5293 6.72819 18.5014 6.77273C18.5005 6.77347 18.4997 6.77422 18.4988 6.77498L5.56956 27.3543C5.56845 27.3562 5.56735 27.3581 5.56626 27.36C5.56601 27.3611 5.56576 27.3622 5.56551 27.3634C5.53958 27.4053 5.51744 27.4496 5.4994 27.4959C5.49841 27.4982 5.49743 27.5006 5.49645 27.503C5.48795 27.5255 5.48041 27.5483 5.47387 27.5714C5.47337 27.5737 5.47287 27.576 5.47238 27.5782C5.46609 27.6018 5.46084 27.6257 5.45665 27.6497C5.45614 27.652 5.45564 27.6543 5.45515 27.6566C5.4515 27.6806 5.4489 27.7049 5.44737 27.7293C5.44565 27.7493 5.44465 27.7694 5.44438 27.7895C5.44426 27.7959 5.44421 27.8024 5.44424 27.8088C5.44433 27.8115 5.44443 27.8141 5.44454 27.8168C5.44463 27.8194 5.44473 27.8221 5.44484 27.8247C5.44571 27.8484 5.44758 27.8721 5.45046 27.8956C5.45371 27.9221 5.45823 27.9483 5.46398 27.9742ZM8.45702 27.6923L18.7556 22.1096L18.8776 31.0999L8.45702 27.6923ZM8.24832 26.0026L18.5862 9.54827L18.7314 20.3218L8.24832 26.0026ZM11.8856 30.4893L19.2912 32.9129L23.2442 37.7569L16.9745 33.7453L11.8856 30.4893ZM20.3996 30.7531L20.2709 21.2887L27.2282 17.5181L26.8227 26.6226L20.3996 30.7531ZM20.8394 32.3473L26.7376 28.5554L26.2713 39.0063L20.8394 32.3473ZM20.2467 19.5009L20.1096 9.2944L26.7688 15.9658L20.2467 19.5009ZM27.8468 37.9805L28.3116 27.5429L37.3028 21.7607L27.8468 37.9805ZM24.0835 11.0629L34.1654 17.0333L28.5077 15.495L24.0835 11.0629ZM28.3966 25.6101L28.7704 17.2193L37.6805 19.6397L28.3966 25.6101Z" fill="#255ED6"/>
</g>
<defs>
<clipPath id="clip0_32_1344">
<rect width="39.9018" height="38.2844" fill="white" transform="matrix(-0.224771 -0.974412 0.969416 -0.245423 8.96878 48.2767)"/>
</clipPath>
</defs>
</svg>
